<?xml version="1.0" encoding="utf-8"?>
<!-- Generator: Adobe Illustrator 15.0.0, SVG Export Plug-In . SVG Version: 6.00 Build 0)  -->
<!DOCTYPE svg PUBLIC "-//W3C//DTD SVG 1.1//EN" "http://www.w3.org/Graphics/SVG/1.1/DTD/svg11.dtd">
<svg version="1.1" id="图层_1" xmlns="http://www.w3.org/2000/svg" xmlns:xlink="http://www.w3.org/1999/xlink" x="0px" y="0px"
	 width="210px" height="60px" viewBox="0 0 210 60" enable-background="new 0 0 210 60" xml:space="preserve">
<g>
	<g>
		<path fill="#595757" d="M64.182,39.679c-0.065-1.355,0.98-2.027,3.136-2.012c2.123-0.016,3.152,0.656,3.087,2.012
			c0.032,1.469-1.014,2.189-3.137,2.162C65.145,41.884,64.117,41.161,64.182,39.679 M69.327,39.679
			c0.032-1.09-0.654-1.629-2.058-1.613c-1.372-0.016-2.042,0.523-2.008,1.613c-0.099,1.26,0.57,1.855,2.008,1.785
			C68.739,41.548,69.425,40.952,69.327,39.679"/>
		<path fill="#595757" d="M73.198,41.778h-1.029v-4.029h2.451c1.045,0,1.779,0.092,2.204,0.273c0.522,0.182,0.784,0.469,0.784,0.859
			c0,0.518-0.441,0.875-1.322,1.07c-0.458,0.1-1.274,0.141-2.451,0.125h-0.637V41.778z M73.198,38.147v1.512h1.029
			c1.6,0.043,2.367-0.217,2.303-0.777c0.064-0.516-0.687-0.762-2.254-0.734H73.198z"/>
		<polygon fill="#595757" points="83.683,41.778 78.979,41.778 78.979,37.749 83.683,37.749 83.683,38.147 80.009,38.147 
			80.009,39.491 83.438,39.491 83.438,39.89 80.009,39.89 80.009,41.378 83.683,41.378 		"/>
		<path fill="#595757" d="M89.956,41.042v-3.293h1.078v4.029h-1.715l-2.646-3.23c-0.13-0.17-0.245-0.371-0.342-0.609h-0.049
			c0.032,0.209,0.049,0.42,0.049,0.629v3.211h-1.028v-4.029h1.665l2.695,3.293c0.13,0.154,0.228,0.303,0.294,0.441h0.048v-0.23
			C89.972,41.155,89.956,41.087,89.956,41.042"/>
		<path fill="#595757" d="M104.312,38.798h-1.078c0.065-0.461-0.425-0.705-1.47-0.732c-1.144,0-1.7,0.244-1.667,0.732
			c0,0.268,0.295,0.449,0.883,0.547c0.164,0.029,0.409,0.063,0.735,0.104c0.327,0.057,0.572,0.1,0.736,0.127
			c1.534,0.209,2.237,0.574,2.106,1.09c-0.064,0.756-1.029,1.146-2.892,1.176c-1.307,0-2.172-0.203-2.596-0.609
			c-0.131-0.125-0.196-0.369-0.196-0.732h1.028c-0.131,0.656,0.474,0.979,1.813,0.963c1.143-0.014,1.731-0.244,1.764-0.691
			c0-0.363-0.425-0.609-1.273-0.734c-0.099-0.014-0.181-0.027-0.246-0.041c-0.099-0.014-0.278-0.043-0.54-0.084
			c-0.62-0.098-1.062-0.176-1.324-0.23c-0.751-0.154-1.109-0.455-1.077-0.902c0.098-0.699,0.962-1.07,2.598-1.111
			C103.479,37.681,104.377,38.058,104.312,38.798"/>
		<polygon fill="#595757" points="105.39,38.147 105.39,37.749 111.27,37.749 111.27,38.147 108.869,38.147 108.869,41.778 
			107.84,41.778 107.84,38.147 		"/>
		<path fill="#595757" d="M112.199,39.679c-0.064-1.355,0.98-2.027,3.137-2.012c2.122-0.016,3.152,0.656,3.088,2.012
			c0.032,1.469-1.014,2.189-3.137,2.162C113.163,41.884,112.135,41.161,112.199,39.679 M117.345,39.679
			c0.032-1.09-0.653-1.629-2.058-1.613c-1.372-0.016-2.041,0.523-2.009,1.613c-0.099,1.26,0.571,1.855,2.009,1.785
			C116.758,41.548,117.443,40.952,117.345,39.679"/>
		<path fill="#595757" d="M121.217,40.015v1.764h-1.03v-4.029h2.4c2.223-0.041,3.284,0.344,3.186,1.154
			c-0.098,0.49-0.702,0.783-1.813,0.881c1.077-0.014,1.633,0.238,1.665,0.754c0.033,0.295,0.1,0.596,0.196,0.904v0.021
			c0.099,0.152,0.228,0.23,0.393,0.23v0.084h-1.226c-0.195-0.238-0.311-0.58-0.343-1.029c0-0.488-0.539-0.734-1.617-0.734H121.217z
			 M121.217,38.147v1.449h1.665c1.208,0,1.813-0.246,1.813-0.734c-0.034-0.504-0.703-0.742-2.01-0.715H121.217z"/>
		<path fill="#595757" d="M126.899,41.778l2.695-4.029h1.372l2.646,4.029h-1.175l-0.735-1.154h-2.989l-0.687,1.154H126.899z
			 M131.457,40.224l-1.225-2.158l-1.226,2.158H131.457z"/>
		<path fill="#595757" d="M140.374,39.702v2.076h-0.783V41.19h-0.049c-0.262,0.418-0.98,0.637-2.156,0.65
			c-2.09,0.014-3.087-0.686-2.989-2.1c-0.033-1.383,0.996-2.074,3.086-2.074c1.831,0.027,2.761,0.447,2.794,1.258h-1.03
			c0-0.547-0.57-0.832-1.714-0.859c-1.47-0.016-2.155,0.543-2.058,1.676c-0.13,1.148,0.457,1.723,1.765,1.723
			c1.469,0.039,2.171-0.408,2.105-1.344h-2.105v-0.418H140.374z"/>
		<polygon fill="#595757" points="146.989,41.778 142.285,41.778 142.285,37.749 146.989,37.749 146.989,38.147 143.315,38.147 
			143.315,39.491 146.744,39.491 146.744,39.89 143.315,39.89 143.315,41.378 146.989,41.378 		"/>
		<path fill="#595757" d="M156.005,41.778h-1.029v-4.029h2.45c1.046,0,1.78,0.092,2.204,0.273c0.523,0.182,0.784,0.469,0.784,0.859
			c0,0.518-0.439,0.875-1.322,1.07c-0.458,0.1-1.273,0.141-2.45,0.125h-0.637V41.778z M156.005,38.147v1.512h1.028
			c1.601,0.043,2.369-0.217,2.304-0.777c0.065-0.516-0.687-0.762-2.255-0.734H156.005z"/>
		<polygon fill="#595757" points="166.783,41.778 161.885,41.778 161.885,37.749 162.914,37.749 162.914,41.378 166.783,41.378 		
			"/>
		<path fill="#595757" d="M167.274,41.778l2.695-4.029h1.372l2.645,4.029h-1.175l-0.735-1.154h-2.99l-0.686,1.154H167.274z
			 M171.832,40.224l-1.227-2.158l-1.224,2.158H171.832z"/>
		<polygon fill="#595757" points="174.281,38.147 174.281,37.749 180.16,37.749 180.16,38.147 177.761,38.147 177.761,41.778 
			176.731,41.778 176.731,38.147 		"/>
		<polygon fill="#595757" points="182.316,41.778 181.288,41.778 181.288,37.749 185.697,37.749 185.697,38.147 182.316,38.147 
			182.316,39.47 185.453,39.47 185.453,39.87 182.316,39.87 		"/>
		<path fill="#595757" d="M186.628,39.679c-0.064-1.355,0.979-2.027,3.136-2.012c2.124-0.016,3.153,0.656,3.088,2.012
			c0.032,1.469-1.013,2.189-3.136,2.162C187.593,41.884,186.563,41.161,186.628,39.679 M191.773,39.679
			c0.031-1.09-0.654-1.629-2.058-1.613c-1.372-0.016-2.042,0.523-2.009,1.613c-0.1,1.26,0.57,1.855,2.009,1.785
			C191.187,41.548,191.872,40.952,191.773,39.679"/>
		<path fill="#595757" d="M195.645,40.015v1.764h-1.028v-4.029h2.4c2.221-0.041,3.282,0.344,3.185,1.154
			c-0.098,0.49-0.702,0.783-1.813,0.881c1.078-0.014,1.634,0.238,1.666,0.754c0.031,0.295,0.099,0.596,0.195,0.904v0.021
			c0.098,0.152,0.228,0.23,0.392,0.23v0.084h-1.224c-0.196-0.238-0.311-0.58-0.345-1.029c0-0.488-0.538-0.734-1.616-0.734H195.645z
			 M195.645,38.147v1.449h1.666c1.209,0,1.813-0.246,1.813-0.734c-0.033-0.504-0.702-0.742-2.008-0.715H195.645z"/>
		<path fill="#595757" d="M206.277,40.896l1.861-3.146H210v4.029h-1.077v-3.314v-0.17c0.032-0.152,0.032-0.271,0-0.355
			c-0.065,0.182-0.163,0.363-0.294,0.545l-1.96,3.295h-1.225l-2.01-3.336c-0.032-0.057-0.066-0.133-0.099-0.23
			c-0.063-0.111-0.112-0.203-0.146-0.273h-0.05c0,0.07,0.017,0.162,0.05,0.273v0.252v3.314h-1.078v-4.029h1.861l1.862,3.146
			c0.099,0.141,0.163,0.336,0.196,0.588c0.031-0.068,0.064-0.16,0.099-0.273C206.194,41.071,206.244,40.966,206.277,40.896"/>
		<rect x="172.483" y="15.329" fill="#084269" width="2.877" height="17.668"/>
		<rect x="164.433" y="15.329" fill="#084269" width="18.898" height="0.973"/>
		<rect x="162.338" y="24.636" fill="#084269" width="23.087" height="0.974"/>
		<polygon fill="#084269" points="169.146,22.994 172.013,22.994 167.374,17.79 164.509,17.79 		"/>
		<polygon fill="#084269" points="178.696,22.994 175.831,22.994 180.475,17.799 183.34,17.799 		"/>
		<rect x="128.422" y="15.329" fill="#084269" width="2.878" height="17.668"/>
		<rect x="119.719" y="15.329" fill="#084269" width="2.878" height="12.75"/>
		<rect x="114.314" y="15.329" fill="#084269" width="20.897" height="0.973"/>
		<rect x="113.227" y="22.363" fill="#084269" width="23.072" height="0.973"/>
		<polygon fill="#084269" points="118.291,32.94 115.427,32.94 119.715,28.058 122.609,28.071 		"/>
		<polygon fill="#084269" points="84.249,22.452 87.113,22.452 80.569,16.807 77.707,16.807 		"/>
		<polygon fill="#084269" points="68.85,32.937 71.713,32.937 71.713,21.672 68.85,24.535 		"/>
		<polygon fill="#084269" points="67.042,25.72 64.179,25.72 74.633,15.356 77.494,15.356 		"/>
		<rect x="81.208" y="24.241" fill="#084269" width="2.864" height="4.64"/>
		<rect x="78.651" y="27.9" fill="#084269" width="5.417" height="1.001"/>
		<rect x="82.938" y="30.712" fill="#084269" width="2.863" height="2.258"/>
		<rect x="71.162" y="24.71" fill="#084269" width="11.883" height="0.973"/>
		<rect x="72.198" y="31.999" fill="#084269" width="13.55" height="0.973"/>
		<rect x="188.42" y="24.09" fill="#084269" width="2.862" height="8.897"/>
		<rect x="205.597" y="24.09" fill="#084269" width="2.864" height="8.897"/>
		<rect x="190.76" y="24.563" fill="#084269" width="14.513" height="0.972"/>
		<rect x="191.605" y="31.384" fill="#084269" width="14.621" height="0.973"/>
		<polygon fill="#084269" points="193.497,15.341 186.879,22.8 189.742,22.8 196.36,15.341 		"/>
		<polygon fill="#084269" points="205.681,17.938 202.818,17.938 207.135,22.8 210,22.8 		"/>
		<polygon fill="#084269" points="206.872,22.516 207.361,22.516 207.361,21.543 206.012,21.543 		"/>
		<polygon fill="#084269" points="205.578,21.543 189.682,21.543 189.682,22.516 206.438,22.516 		"/>
		<polygon fill="#084269" points="101.326,28.161 98.454,28.161 108.378,16.954 111.24,16.954 		"/>
		<polygon fill="#084269" points="93.125,32.978 90.259,32.978 90.259,20.714 93.125,15.715 		"/>
		<polygon fill="#084269" points="91.532,22.927 88.667,22.927 90.841,15.388 93.705,15.388 		"/>
		<polygon fill="#084269" points="97.713,30.739 94.849,30.739 97.692,29.074 100.558,29.074 		"/>
		<rect x="94.849" y="17.027" fill="#084269" width="2.879" height="1.567"/>
		<rect x="94.849" y="19.595" fill="#084269" width="2.879" height="11.145"/>
		<rect x="103.611" y="15.35" fill="#084269" width="2.877" height="6.642"/>
		<rect x="100.509" y="17.298" fill="#084269" width="8.916" height="0.973"/>
		<rect x="99.579" y="21.087" fill="#084269" width="12.164" height="0.973"/>
		<rect x="91.034" y="20.025" fill="#084269" width="5.943" height="0.973"/>
		<rect x="108.732" y="24.048" fill="#084269" width="2.863" height="8.896"/>
		<rect x="102.373" y="27.947" fill="#084269" width="5.344" height="0.973"/>
		<rect x="104.639" y="31.341" fill="#084269" width="5.97" height="0.973"/>
		<polygon fill="#084269" points="104.541,24.521 104.316,24.521 104.316,24.048 102.862,24.521 101.957,24.521 101.957,24.815 
			101.453,24.981 101.453,28.012 		"/>
		<polygon fill="#084269" points="104.955,24.521 101.453,28.483 101.453,32.944 104.316,32.944 104.316,25.494 108.408,25.494 
			108.408,24.521 		"/>
		<rect x="152.96" y="17.29" fill="#084269" width="7.612" height="0.97"/>
		<polygon fill="#084269" points="152.695,20.456 149.831,20.456 154.141,15.593 157.005,15.593 		"/>
		<rect x="138.923" y="17.316" fill="#084269" width="11.42" height="0.973"/>
		<rect x="146.605" y="20.585" fill="#084269" width="2.866" height="11.023"/>
		<rect x="143.999" y="30.606" fill="#084269" width="5.416" height="1.002"/>
		<rect x="143.234" y="21.264" fill="#084269" width="5.416" height="1"/>
		<rect x="157.148" y="17.697" fill="#084269" width="2.877" height="4.851"/>
		<rect x="141.632" y="17.572" fill="#084269" width="2.878" height="10.611"/>
		<polygon fill="#084269" points="140.897,33.046 138.032,33.046 141.637,28.133 144.518,28.172 		"/>
		<rect x="143.541" y="15.282" fill="#084269" width="2.878" height="1.568"/>
		<polygon fill="#084269" points="154.02,31.978 160.04,22.541 157.14,22.532 151.152,31.978 		"/>
		<polygon fill="#084269" points="149.824,20.606 157.909,32.026 160.612,32.026 152.679,20.606 		"/>
	</g>
	<g>
		<path fill="#084269" d="M17.684,41.429c-0.918,3.537-4.528,5.662-8.067,4.744c-3.537-0.918-5.66-4.529-4.743-8.066
			c0.918-3.537,4.529-5.662,8.067-4.744C16.478,34.28,18.601,37.892,17.684,41.429"/>
		<path fill="#084269" d="M40.875,35.132c3.521-0.977,7.167,1.09,8.141,4.613c0.974,3.521-1.092,7.168-4.614,8.141
			c-3.522,0.973-7.167-1.092-8.142-4.613C35.287,39.749,37.353,36.106,40.875,35.132"/>
		<path fill="#084269" d="M23.825,18.195c-2.605-2.562-2.638-6.753-0.075-9.358c2.563-2.604,6.753-2.637,9.357-0.074
			c2.604,2.562,2.638,6.752,0.075,9.358C30.618,20.725,26.43,20.758,23.825,18.195"/>
		<g>
			<defs>
				<path id="SVGID_1_" d="M7.939,19.295l10.767,6.59l16.993-0.002l11.355-6.891l-1.968-12.8L36.02,1.181L19.715,0.241
					c0,0-7.946,2.716-8.437,3.081c-0.49,0.364-4.04,6.837-4.092,7.517C7.134,11.518,7.939,19.295,7.939,19.295z"/>
			</defs>
			<clipPath id="SVGID_2_">
				<use xlink:href="#SVGID_1_"  overflow="visible"/>
			</clipPath>
			<path clip-path="url(#SVGID_2_)" fill="#084269" d="M17.758,25.876c-1.308-2.368-1.762-5.214-1.029-8.041
				c1.521-5.863,7.507-9.384,13.371-7.862c5.864,1.522,9.384,7.506,7.863,13.372c-0.223,0.858-0.553,1.659-0.956,2.408l7.399-4.494
				c0.15-4.599-1.543-9.242-5.08-12.724c-6.717-6.611-17.521-6.524-24.13,0.194c-3.457,3.51-5.076,8.14-4.88,12.703L17.758,25.876z"
				/>
		</g>
		<g>
			<defs>
				<polygon id="SVGID_3_" points="36.675,27.491 48.03,20.6 58.033,33.149 53.647,49.71 40.101,56.413 28.552,54.257 
					28.552,40.694 				"/>
			</defs>
			<clipPath id="SVGID_4_">
				<use xlink:href="#SVGID_3_"  overflow="visible"/>
			</clipPath>
			<path clip-path="url(#SVGID_4_)" fill="#084269" d="M53.388,32.392c-1.312-4.747-4.51-8.461-8.556-10.573l-7.009,4.258
				c0.659,0.044,1.321,0.142,1.985,0.312c5.862,1.521,9.383,7.509,7.862,13.372s-7.507,9.385-13.371,7.863
				c-2.667-0.691-4.839-2.313-6.283-4.42v8.27c3.892,2.391,8.724,3.225,13.474,1.91C50.572,50.874,55.9,41.474,53.388,32.392"/>
		</g>
		<g>
			<defs>
				<path id="SVGID_5_" d="M17.726,27.489l-10.767-6.59l-9.013,14.841c0,0,2.35,13,2.401,13.209
					c0.052,0.209,4.698,3.496,5.064,3.914c0.365,0.418,4.321,3.08,5.867,3.551c1.546,0.469,12.456,0.469,12.456,0.469l2.938-1.695
					V40.626L17.726,27.489z"/>
			</defs>
			<clipPath id="SVGID_6_">
				<use xlink:href="#SVGID_5_"  overflow="visible"/>
			</clipPath>
			<path clip-path="url(#SVGID_6_)" fill="#084269" d="M27.314,43.021c-2.463,3.975-7.292,6.082-12.058,4.846
				c-5.864-1.521-9.384-7.508-7.864-13.371c1.206-4.647,5.219-7.81,9.751-8.168l-7.111-4.246c-4.051,2.169-7.221,5.955-8.465,10.754
				c-2.367,9.121,3.11,18.434,12.232,20.801c4.799,1.244,9.649,0.313,13.515-2.174V43.021z"/>
		</g>
	</g>
	<path fill="none" d="M24.982,54.237l0.028-12.594l-8.822-14.479L4.424,21.066l-9.886,8.321l0.436,10.327l7.662,14.381
		c0,0,6.438,5.359,7.004,5.59c0.566,0.227,7.924-0.109,8.529-0.416C18.773,58.962,24.982,54.237,24.982,54.237z"/>
</g>
</svg>
